<svg width="361" height="482" viewBox="0 0 361 482" fill="none" xmlns="http://www.w3.org/2000/svg">
<rect x="0.25" y="0.25" width="360.5" height="481.5" rx="19.75" fill="#72C850"/>
<path d="M264.341 324.335C263.708 324.632 263.075 324.856 262.442 325.042C254.513 327.421 238.617 323.368 231.805 319.464C171.535 285.105 214.271 184.631 216.133 180.354L217.957 176.152L221.791 178.681C225.7 181.21 316.681 241.858 285.113 303.623C281.8 310.056 272.084 320.877 264.341 324.335Z" fill="#F491A3"/>
<path d="M279.678 474.899C271.526 478.543 261.251 480.923 255.146 480.997C174.142 481.815 162.006 354.307 161.522 348.878L161.15 344.453L165.58 344.676C171.015 344.974 298.44 352.634 300.413 433.921C300.636 443.068 296.095 461.698 289.32 468.689C287.123 471.031 283.661 473.114 279.678 474.899Z" fill="#F491A3"/>
<path d="M344.601 266.439C328.892 278.525 271.489 326.717 295.76 370.409C298.738 375.764 308.008 384.725 312.735 385.952C317.463 387.217 329.934 384.019 335.22 380.858C377.956 355.014 352.158 284.66 344.601 266.439Z" fill="#F491A3"/>
<rect x="0.25" y="0.25" width="360.5" height="481.5" rx="19.75" stroke="white" stroke-width="0.5"/>
</svg>
