<svg width="361" height="482" viewBox="0 0 361 482" fill="none" xmlns="http://www.w3.org/2000/svg">
<g clip-path="url(#clip0_448_132)">
<rect width="361" height="482" rx="20" fill="#12312B"/>
<path d="M370.225 395.461C368.26 400.369 362.739 402.448 357.929 400.119C353.119 397.749 350.777 391.843 352.742 386.935C354.708 382.028 360.229 379.907 365.039 382.278C369.891 384.648 372.191 390.554 370.225 395.461ZM340.738 439.046C335.552 438.506 331.453 433.681 331.662 428.275C331.871 422.827 336.221 418.876 341.449 419.375C346.636 419.915 350.735 424.74 350.526 430.188C350.317 435.594 345.967 439.587 340.738 439.046ZM317.525 403.613C315.727 398.372 318.195 392.883 323.088 391.261C327.982 389.68 333.377 392.592 335.217 397.832C337.016 403.03 334.548 408.562 329.655 410.184C324.761 411.764 319.366 408.811 317.525 403.613ZM304.601 370.674C302.803 365.434 305.27 359.944 310.164 358.322C315.058 356.742 320.495 359.653 322.293 364.893C324.092 370.134 321.624 375.623 316.731 377.245C311.837 378.826 306.4 375.873 304.601 370.674ZM312.924 447.447C310.959 452.355 305.438 454.434 300.628 452.105C295.818 449.735 293.476 443.829 295.441 438.922C297.407 434.014 302.928 431.935 307.738 434.264C312.59 436.593 314.932 442.498 312.924 447.447ZM291.133 400.161C295.023 396.75 301.004 397.499 304.476 401.783C307.947 406.066 307.613 412.263 303.723 415.673C299.833 419.084 293.894 418.335 290.422 414.051C286.909 409.768 287.244 403.529 291.133 400.161ZM435.097 387.102C428.405 317.108 367.549 264.082 297.658 265.662C300.46 259.341 301.715 252.77 301.297 247.072C300.795 240.252 297.909 235.302 293.183 233.14C288.457 230.977 282.81 232.058 277.289 236.134C274.11 238.505 271.141 241.707 268.631 245.533C262.985 234.512 253.825 228.232 245.962 230.769C241.068 232.474 237.555 236.924 236.258 243.62C235.422 247.821 235.505 252.645 236.426 257.552C230.821 256.388 225.342 256.305 220.616 257.345C213.882 258.8 209.365 262.335 207.901 267.284C205.517 275.228 212.167 284.294 223.543 289.659C183.935 317.149 161.642 364.477 166.242 412.596C169.672 448.279 186.862 480.51 214.676 503.384C242.49 526.217 277.582 536.947 313.468 533.536C328.525 532.122 342.913 528.296 356.298 522.307C374.868 513.989 391.431 501.471 404.773 485.376C427.736 457.678 438.526 422.827 435.097 387.102Z" fill="#72C850"/>
</g>
<rect x="0.25" y="0.25" width="360.5" height="481.5" rx="19.75" stroke="white" stroke-width="0.5"/>
<defs>
<clipPath id="clip0_448_132">
<rect width="361" height="482" rx="20" fill="white"/>
</clipPath>
</defs>
</svg>
