<svg width="361" height="482" viewBox="0 0 361 482" fill="none" xmlns="http://www.w3.org/2000/svg">
<g clip-path="url(#clip0_448_146)">
<rect width="361" height="482" rx="20" fill="#F491A3"/>
<path d="M115.445 505.629C100.031 499.794 88.3499 493.058 84.2855 490.562C78.0837 486.773 23.3508 452.189 15.2522 404.283C11.7298 383.623 17.5403 363.925 32.503 345.731C33.0148 345.16 41.2338 336.168 53.1558 338.033C63.994 339.657 73.6581 349.671 81.7265 367.655C83.5329 371.624 85.0382 374.692 86.3027 377.037C85.9715 370.993 84.8877 362.632 82.8705 353.701C78.8062 335.507 77.0601 312.952 99.7902 300.352C103.132 298.517 106.684 298.096 110.117 299.119C118.998 301.374 124.507 312.712 130.077 323.387C132.214 327.447 135.225 333.281 137.272 335.687C139.049 333.492 141.758 329.041 144.227 325.071C153.891 309.283 168.492 285.435 189.326 281.466C199.291 279.571 209.286 282.458 219.191 289.886C228.042 295.72 233.281 303.239 234.515 312.05C237.194 331.086 220.365 350.663 208.112 364.948C204.65 369.008 200.435 373.88 198.96 376.436C201.729 377.579 208.654 378.781 213.531 379.503C227.831 381.699 247.431 384.616 245.745 400.314C243.155 424.131 225.122 429.274 203.596 433.153C194.564 434.777 186.436 437.063 180.715 439.047C183.365 439.288 186.767 439.498 191.132 439.589C210.852 440.04 223.737 445.032 229.548 454.445C235.9 464.7 230.782 475.766 230.571 476.217C219.522 495.614 204.198 507.794 184.78 512.816C160.785 518.981 135.075 513.027 115.445 505.629Z" fill="#3DAE2B"/>
</g>
<rect x="0.25" y="0.25" width="360.5" height="481.5" rx="19.75" stroke="white" stroke-width="0.5"/>
<defs>
<clipPath id="clip0_448_146">
<rect width="361" height="482" rx="20" fill="white"/>
</clipPath>
</defs>
</svg>
