<svg width="1440" height="1072" viewBox="0 0 1440 1072" fill="none" xmlns="http://www.w3.org/2000/svg">
<g clip-path="url(#clip0_433_12182)">
<path opacity="0.33" d="M1012.88 36.624C1404.63 -62.272 1518.37 74.704 1628.27 36.624C1794.84 -21.392 1921.65 45.136 1921.65 45.136V112L0.349971 112V45.136C0.349971 45.136 119.663 15.904 182.681 12.32C245.7 8.624 303.339 26.096 328.316 37.072C373.082 56.448 489.705 102.256 586.539 106.736C683.372 111.216 975.602 45.92 1012.88 36.624Z" fill="#3EB049"/>
<path opacity="0.66" d="M511.416 36.624C598.835 36.624 659.74 62.608 759.456 80.416C814.405 90.16 1048.23 91.728 1247.47 36.624C1446.7 -18.48 1423.65 75.152 1534.12 36.624C1699.36 -20.496 1921.65 67.424 1921.65 67.424V112L0.349971 112V71.12C0.349971 71.12 54.5306 91.84 177.302 91.84C365.013 91.728 431.298 36.624 511.416 36.624Z" fill="#3EB049"/>
<path d="M449.742 79.632C834.002 144.032 960.808 6.272 1208.85 57.792C1456.7 109.984 1456.7 105.952 1566.59 88.928C1675.72 71.904 1667.46 61.712 1748.93 53.2C1866.7 40.656 1921.65 112 1921.65 112L0.349971 112C0.349971 112 19.3708 66.192 160.971 58.128C302.57 50.064 327.74 59.36 449.742 79.632Z" fill="#3EB049"/>
</g>
<rect width="1440" height="960" transform="translate(0 112)" fill="#40AE49"/>
<defs>
<clipPath id="clip0_433_12182">
<rect width="1440" height="112" fill="white" transform="matrix(-1 0 0 -1 1440 112)"/>
</clipPath>
</defs>
</svg>
