<svg width="65" height="74" viewBox="0 0 65 74" fill="none" xmlns="http://www.w3.org/2000/svg">
<path d="M48.9126 39.7347C48.4426 40.9147 47.1226 41.4147 45.9726 40.8547C44.8226 40.2847 44.2626 38.8647 44.7326 37.6847C45.2026 36.5047 46.5226 35.9947 47.6726 36.5647C48.8326 37.1347 49.3826 38.5547 48.9126 39.7347ZM41.8626 50.2147C40.6226 50.0847 39.6426 48.9247 39.6926 47.6247C39.7426 46.3147 40.7826 45.3647 42.0326 45.4847C43.2726 45.6147 44.2526 46.7747 44.2026 48.0847C44.1526 49.3847 43.1126 50.3447 41.8626 50.2147ZM36.3126 41.6947C35.8826 40.4347 36.4726 39.1147 37.6426 38.7247C38.8126 38.3447 40.1026 39.0447 40.5426 40.3047C40.9726 41.5547 40.3826 42.8847 39.2126 43.2747C38.0426 43.6547 36.7526 42.9447 36.3126 41.6947ZM33.2226 33.7747C32.7926 32.5147 33.3826 31.1947 34.5526 30.8047C35.7226 30.4247 37.0226 31.1247 37.4526 32.3847C37.8826 33.6447 37.2926 34.9647 36.1226 35.3547C34.9526 35.7347 33.6526 35.0247 33.2226 33.7747ZM35.2126 52.2347C34.7426 53.4147 33.4226 53.9147 32.2726 53.3547C31.1226 52.7847 30.5626 51.3647 31.0326 50.1847C31.5026 49.0047 32.8226 48.5047 33.9726 49.0647C35.1326 49.6247 35.6926 51.0447 35.2126 52.2347ZM30.0026 40.8647C30.9326 40.0447 32.3626 40.2247 33.1926 41.2547C34.0226 42.2847 33.9426 43.7747 33.0126 44.5947C32.0826 45.4147 30.6626 45.2347 29.8326 44.2047C28.9926 43.1747 29.0726 41.6747 30.0026 40.8647ZM64.4226 37.7247C62.8226 20.8947 48.2726 8.14471 31.5626 8.52471C32.2326 7.00471 32.5326 5.42471 32.4326 4.05471C32.3126 2.41471 31.6226 1.22471 30.4926 0.704713C29.3626 0.184713 28.0126 0.444713 26.6926 1.42471C25.9326 1.99471 25.2226 2.76471 24.6226 3.68471C23.2726 1.03471 21.0826 -0.475287 19.2026 0.134713C18.0326 0.544713 17.1926 1.61471 16.8826 3.22471C16.6826 4.23471 16.7026 5.39471 16.9226 6.57471C15.5826 6.29471 14.2726 6.27471 13.1426 6.52471C11.5326 6.87471 10.4526 7.72471 10.1026 8.91471C9.5326 10.8247 11.1226 13.0047 13.8426 14.2947C4.3726 20.9047 -0.957398 32.2847 0.142602 43.8547C0.962602 52.4347 5.0726 60.1847 11.7226 65.6847C18.3726 71.1747 26.7626 73.7547 35.3426 72.9347C38.9426 72.5947 42.3826 71.6747 45.5826 70.2347C50.0226 68.2347 53.9826 65.2247 57.1726 61.3547C62.6626 54.6947 65.2426 46.3147 64.4226 37.7247Z" fill="#40AE49"/>
</svg>
